<svg xmlns="http://www.w3.org/2000/svg" width="300" height="300" viewBox="0 0 300 300"><path fill="#e3e3e3" d="M118.5 87L87 55.5L118.5 24L150 55.5ZM150 55.5L181.5 24L213 55.5L181.5 87ZM181.5 213L213 244.5L181.5 276L150 244.5ZM150 244.5L118.5 276L87 244.5L118.5 213ZM55.5 150L24 118.5L55.5 87L87 118.5ZM213 118.5L244.5 87L276 118.5L244.5 150ZM244.5 150L276 181.5L244.5 213L213 181.5ZM87 181.5L55.5 213L24 181.5L55.5 150Z"/><path fill="#2e5e8c" d="M24 87L24 24L55.5 24ZM213 24L276 24L276 55.5ZM276 213L276 276L244.5 276ZM87 276L24 276L24 244.5Z"/><path fill="#5991c7" d="M87 87L150 87L150 150L87 150ZM127.9 143.7L143.7 112L112 112ZM213 87L213 150L150 150L150 87ZM156.3 127.9L188 143.7L188 112ZM213 213L150 213L150 150L213 150ZM172.2 156.3L156.3 188L188 188ZM87 213L87 150L150 150L150 213ZM143.7 172.2L112 156.3L112 188Z"/></svg>