<svg xmlns="http://www.w3.org/2000/svg" width="300" height="300" viewBox="0 0 300 300"><path fill="#66cc6e" d="M150 24L150 87L87 87ZM213 87L150 87L150 24ZM150 276L150 213L213 213ZM87 213L150 213L150 276ZM87 87L87 150L24 150ZM276 150L213 150L213 87ZM213 213L213 150L276 150ZM24 150L87 150L87 213Z"/><path fill="#4c4c4c" d="M24 24L87 24L87 55.5ZM276 24L276 87L244.5 87ZM276 276L213 276L213 244.5ZM24 276L24 213L55.5 213Z"/><path fill="#e5e5e5" d="M87 87L150 87L150 150L87 150ZM109.7 126.1a16.4,16.4 0 1,0 32.8,0a16.4,16.4 0 1,0 -32.8,0M213 87L213 150L150 150L150 87ZM157.6 126.1a16.4,16.4 0 1,0 32.8,0a16.4,16.4 0 1,0 -32.8,0M213 213L150 213L150 150L213 150ZM157.6 173.9a16.4,16.4 0 1,0 32.8,0a16.4,16.4 0 1,0 -32.8,0M87 213L87 150L150 150L150 213ZM109.7 173.9a16.4,16.4 0 1,0 32.8,0a16.4,16.4 0 1,0 -32.8,0"/></svg>