<svg xmlns="http://www.w3.org/2000/svg" width="300" height="300" viewBox="0 0 300 300"><path fill="#59c7af" d="M118.5 87L87 55.5L118.5 24L150 55.5ZM150 55.5L181.5 24L213 55.5L181.5 87ZM181.5 213L213 244.5L181.5 276L150 244.5ZM150 244.5L118.5 276L87 244.5L118.5 213ZM55.5 150L24 118.5L55.5 87L87 118.5ZM213 118.5L244.5 87L276 118.5L244.5 150ZM244.5 150L276 181.5L244.5 213L213 181.5ZM87 181.5L55.5 213L24 181.5L55.5 150Z"/><path fill="#2e8c78" d="M87 24L87 87L55.5 87ZM276 87L213 87L213 55.5ZM213 276L213 213L244.5 213ZM24 213L87 213L87 244.5Z"/><path fill="#ace3d7" d="M108 108L150 108L150 150L108 150ZM192 108L192 150L150 150L150 108ZM192 192L150 192L150 150L192 150ZM108 192L108 150L150 150L150 192Z"/></svg>