<svg xmlns="http://www.w3.org/2000/svg" width="300" height="300" viewBox="0 0 300 300"><path fill="#545454" d="M150 55.5L118.5 87L87 55.5L118.5 24ZM181.5 87L150 55.5L181.5 24L213 55.5ZM150 244.5L181.5 213L213 244.5L181.5 276ZM118.5 213L150 244.5L118.5 276L87 244.5ZM87 118.5L55.5 150L24 118.5L55.5 87ZM244.5 150L213 118.5L244.5 87L276 118.5ZM213 181.5L244.5 150L276 181.5L244.5 213ZM55.5 150L87 181.5L55.5 213L24 181.5Z"/><path fill="#d175ce" d="M87 24L87 87L24 87ZM276 87L213 87L213 24ZM213 276L213 213L276 213ZM24 213L87 213L87 276Z"/><path fill="#e8e8e8" d="M112.2 150a37.8,37.8 0 1,1 75.6,0a37.8,37.8 0 1,1 -75.6,0"/></svg>