<svg xmlns="http://www.w3.org/2000/svg" width="300" height="300" viewBox="0 0 300 300"><path fill="#5b5b5b" d="M150 55.5L118.5 87L87 55.5L118.5 24ZM181.5 87L150 55.5L181.5 24L213 55.5ZM150 244.5L181.5 213L213 244.5L181.5 276ZM118.5 213L150 244.5L118.5 276L87 244.5ZM87 118.5L55.5 150L24 118.5L55.5 87ZM244.5 150L213 118.5L244.5 87L276 118.5ZM213 181.5L244.5 150L276 181.5L244.5 213ZM55.5 150L87 181.5L55.5 213L24 181.5Z"/><path fill="#a784d6" d="M55.5 87L24 55.5L55.5 24L87 55.5ZM213 55.5L244.5 24L276 55.5L244.5 87ZM244.5 213L276 244.5L244.5 276L213 244.5ZM87 244.5L55.5 276L24 244.5L55.5 213Z"/><path fill="#d3c1ea" d="M87 87L150 87L150 150L87 150ZM109.7 126.1a16.4,16.4 0 1,0 32.8,0a16.4,16.4 0 1,0 -32.8,0M213 87L213 150L150 150L150 87ZM157.6 126.1a16.4,16.4 0 1,0 32.8,0a16.4,16.4 0 1,0 -32.8,0M213 213L150 213L150 150L213 150ZM157.6 173.9a16.4,16.4 0 1,0 32.8,0a16.4,16.4 0 1,0 -32.8,0M87 213L87 150L150 150L150 213ZM109.7 173.9a16.4,16.4 0 1,0 32.8,0a16.4,16.4 0 1,0 -32.8,0"/></svg>