<svg xmlns="http://www.w3.org/2000/svg" width="300" height="300" viewBox="0 0 300 300"><path fill="#d18675" d="M87 55.5L118.5 24L150 55.5L118.5 87ZM181.5 24L213 55.5L181.5 87L150 55.5ZM213 244.5L181.5 276L150 244.5L181.5 213ZM118.5 276L87 244.5L118.5 213L150 244.5ZM24 118.5L55.5 87L87 118.5L55.5 150ZM244.5 87L276 118.5L244.5 150L213 118.5ZM276 181.5L244.5 213L213 181.5L244.5 150ZM55.5 213L24 181.5L55.5 150L87 181.5Z"/><path fill="#e8c2ba" d="M24 24L87 24L87 55.5ZM276 24L276 87L244.5 87ZM276 276L213 276L213 244.5ZM24 276L24 213L55.5 213Z"/><path fill="#545454" d="M150 118.5L150 150L118.5 150ZM181.5 150L150 150L150 118.5ZM150 181.5L150 150L181.5 150ZM118.5 150L150 150L150 181.5Z"/></svg>