<svg xmlns="http://www.w3.org/2000/svg" width="300" height="300" viewBox="0 0 300 300"><path fill="#c1c8ea" d="M97.5 55.5a21,21 0 1,1 42,0a21,21 0 1,1 -42,0M160.5 55.5a21,21 0 1,1 42,0a21,21 0 1,1 -42,0M160.5 244.5a21,21 0 1,1 42,0a21,21 0 1,1 -42,0M97.5 244.5a21,21 0 1,1 42,0a21,21 0 1,1 -42,0M34.5 118.5a21,21 0 1,1 42,0a21,21 0 1,1 -42,0M223.5 118.5a21,21 0 1,1 42,0a21,21 0 1,1 -42,0M223.5 181.5a21,21 0 1,1 42,0a21,21 0 1,1 -42,0M34.5 181.5a21,21 0 1,1 42,0a21,21 0 1,1 -42,0"/><path fill="#3d51b7" d="M34.5 55.5a21,21 0 1,1 42,0a21,21 0 1,1 -42,0M223.5 55.5a21,21 0 1,1 42,0a21,21 0 1,1 -42,0M223.5 244.5a21,21 0 1,1 42,0a21,21 0 1,1 -42,0M34.5 244.5a21,21 0 1,1 42,0a21,21 0 1,1 -42,0"/><path fill="#8492d6" d="M87 87L150 87L150 97.1L123.5 150L87 150ZM213 87L213 150L202.9 150L150 123.5L150 87ZM213 213L150 213L150 202.9L176.5 150L213 150ZM87 213L87 150L97.1 150L150 176.5L150 213Z"/></svg>