<svg xmlns="http://www.w3.org/2000/svg" width="300" height="300" viewBox="0 0 300 300"><path fill="#464646" d="M97.5 55.5a21,21 0 1,1 42,0a21,21 0 1,1 -42,0M160.5 55.5a21,21 0 1,1 42,0a21,21 0 1,1 -42,0M160.5 244.5a21,21 0 1,1 42,0a21,21 0 1,1 -42,0M97.5 244.5a21,21 0 1,1 42,0a21,21 0 1,1 -42,0M34.5 118.5a21,21 0 1,1 42,0a21,21 0 1,1 -42,0M223.5 118.5a21,21 0 1,1 42,0a21,21 0 1,1 -42,0M223.5 181.5a21,21 0 1,1 42,0a21,21 0 1,1 -42,0M34.5 181.5a21,21 0 1,1 42,0a21,21 0 1,1 -42,0"/><path fill="#e3e3e3" d="M55.5 87L24 55.5L55.5 24L87 55.5ZM213 55.5L244.5 24L276 55.5L244.5 87ZM244.5 213L276 244.5L244.5 276L213 244.5ZM87 244.5L55.5 276L24 244.5L55.5 213Z"/><path fill="#59a2c7" d="M87 87L150 87L150 131.1L112.2 112.2L131.1 150L87 150ZM213 87L213 150L168.9 150L187.8 112.2L150 131.1L150 87ZM213 213L150 213L150 168.9L187.8 187.8L168.9 150L213 150ZM87 213L87 150L131.1 150L112.2 187.8L150 168.9L150 213Z"/></svg>