<svg xmlns="http://www.w3.org/2000/svg" width="300" height="300" viewBox="0 0 300 300"><path fill="#e8c0ba" d="M87 24L150 24L150 55.5ZM213 24L213 87L181.5 87ZM213 276L150 276L150 244.5ZM87 276L87 213L118.5 213ZM24 87L87 87L87 118.5ZM276 87L276 150L244.5 150ZM276 213L213 213L213 181.5ZM24 213L24 150L55.5 150Z"/><path fill="#545454" d="M24 55.5L55.5 24L87 55.5L55.5 87ZM244.5 24L276 55.5L244.5 87L213 55.5ZM276 244.5L244.5 276L213 244.5L244.5 213ZM55.5 276L24 244.5L55.5 213L87 244.5Z"/><path fill="#d18175" d="M150 118.5L150 150L118.5 150ZM181.5 150L150 150L150 118.5ZM150 181.5L150 150L181.5 150ZM118.5 150L150 150L150 181.5Z"/></svg>