<svg xmlns="http://www.w3.org/2000/svg" width="300" height="300" viewBox="0 0 300 300"><path fill="#545454" d="M150 87L87 87L87 24ZM150 87L150 24L213 24ZM150 213L213 213L213 276ZM150 213L150 276L87 276ZM87 150L24 150L24 87ZM213 150L213 87L276 87ZM213 150L276 150L276 213ZM87 150L87 213L24 213Z"/><path fill="#e8e8e8" d="M34.5 55.5a21,21 0 1,1 42,0a21,21 0 1,1 -42,0M223.5 55.5a21,21 0 1,1 42,0a21,21 0 1,1 -42,0M223.5 244.5a21,21 0 1,1 42,0a21,21 0 1,1 -42,0M34.5 244.5a21,21 0 1,1 42,0a21,21 0 1,1 -42,0"/><path fill="#d175bb" d="M150 118.5L150 150L118.5 150ZM181.5 150L150 150L150 118.5ZM150 181.5L150 150L181.5 150ZM118.5 150L150 150L150 181.5Z"/></svg>